<?xml version="1.0" encoding="utf-8"?>
<!-- Generator: Adobe Illustrator 22.0.0, SVG Export Plug-In . SVG Version: 6.00 Build 0)  -->
<svg version="1.1" id="Layer_1" xmlns="http://www.w3.org/2000/svg" xmlns:xlink="http://www.w3.org/1999/xlink" x="0px" y="0px"
	 viewBox="0 0 2181.6 2475.1" style="enable-background:new 0 0 2181.6 2475.1;" xml:space="preserve">
<style type="text/css">
	.st0{fill:#FF002B;}
	.st1{fill:#000072;}
	.st2{opacity:0.3;}
	.st3{opacity:0.6;}
	.st4{fill:#FFFFFF;}
	.st5{fill:#EF701B;}
	.st6{fill:#73C612;}
	.st7{opacity:0.19;}
	.st8{opacity:0.25;}
</style>
<g>
	<g>
		<g>
			<path class="st0" d="M1810.9,2002.7c-241.6,284.6-728.7,613-996.8,370c-50.9-46.1-119.1-67.9-187.3-59.8
				c-359.3,42.6-566-507.3-597.9-879.2C-74,427.3,541.3,175,1206.4,507.8c57.2,28.6,118.4,48.1,181.5,58c11.9,1.9,23.8,3.8,35.5,6
				c0.9,0.2,1.7,0.3,2.6,0.5c173.7,31.2,324.8,88.2,444.1,167.5c139.9,92.8,236.4,216.2,275,364.5
				C2208,1345.7,2117.4,1653.3,1810.9,2002.7z"/>
		</g>
		<g>
			<path class="st1" d="M1043.6,2459.9c-90.9,0-168.6-28.6-231.1-85.4c-50.4-45.6-118-67.2-185.5-59.2
				c-92.8,11-180.8-16.7-261.4-82.4c-199.8-162.8-315.8-528.3-339.1-799c-24.4-238.4-9.3-443.4,44.7-609.3
				C121.5,670.1,204.4,552,317.7,473.8c220.6-152.3,544.9-140.7,889.8,31.9c57,28.5,117.8,47.9,180.8,57.7c13.2,2.1,24.9,4,35.6,6
				l2.7,0.5c174.9,31.4,324.6,87.9,445,167.8c142.9,94.8,238.4,221.3,276,365.9c68.1,261.8-47.7,573.3-334.8,900.7
				c-175.8,207.1-482.2,437.8-739.4,454.6C1063.2,2459.5,1053.4,2459.9,1043.6,2459.9z M654.8,2309c59.1,0,116.5,21.9,160.9,62
				c68.3,61.9,154.8,89.8,257.3,83.2c255.8-16.7,560.9-246.5,736.1-453l0,0c286.1-326.2,401.5-636.2,333.8-896.4
				c-37.3-143.4-132.1-269-274.1-363.1c-119.8-79.6-269-135.8-443.3-167.1l-2.7-0.5c-10.6-1.9-22.2-3.9-35.4-5.9
				c-63.4-9.9-124.7-29.5-182.2-58.2c-343.3-171.8-665.9-183.6-885-32.3C155.5,591.5-28.5,849.7,31.2,1433.5
				c23.1,269.8,138.6,633.9,337.4,795.8c79.6,64.9,166.4,92.3,257.9,81.4C635.9,2309.6,645.4,2309,654.8,2309z"/>
		</g>
	</g>
	<g class="st2">
		<g>
			<path class="st1" d="M1810.9,2002.7c-241.6,284.6-728.7,613-996.8,370c-50.9-46.1-119.1-67.9-187.3-59.8
				c-120.5,14.3-223.8-38-309.1-127.9c91.2,59.6,191,84.3,295.1,52.5c64.2-19.6,133.4-10.5,190.4,25
				c299.8,187.1,711.2-213,894-528.5c100.1-166.3,163.5-318.5,195.4-455.5c0.3-1.3,0.6-2.6,0.9-3.9c0.9-4,1.8-7.9,2.6-11.8
				c0-0.1,0.1-0.3,0.1-0.4c38-179.8-21.1-328.1-144-455.6c-67.3,26.2-140.5,36.8-213.9,29.6c11.4,16.6,19.7,33.9,24.4,51.5
				c-258.7,45.6-542.5-74.3-683.7-218.3c58.2-81.9,286.6-56.3,464.5,23.5c21.4-45.4,49.2-85.7,82-120.4c0.2-0.2,0.4-0.4,0.6-0.6
				c6,1.1,11.9,2.2,17.8,3.3c4.5,0.8,8.9,1.7,13.3,2.6c5.7,1.2,11.4,2.3,17.1,3.5c9.7,2.1,19.5,4.2,29.1,6.5
				c0.8,0.2,1.6,0.4,2.4,0.6c5.2,1.2,10.4,2.4,15.5,3.7c4.4,1.1,8.8,2.2,13.2,3.3c1.3,0.3,2.6,0.7,3.9,1c3.6,0.9,7.2,1.9,10.8,2.9
				c1.9,0.5,3.7,1,5.5,1.5c9.2,2.5,18.3,5.1,27.3,7.7c5,1.5,10,3,15,4.5c4.9,1.5,9.7,3,14.5,4.6c4.9,1.6,9.7,3.2,14.5,4.8
				c8.9,3,17.8,6.1,26.5,9.2c1.6,0.6,3.3,1.2,4.9,1.8c3.7,1.3,7.4,2.7,11.1,4.1c4.5,1.7,8.9,3.4,13.4,5.2c4.7,1.8,9.5,3.7,14.2,5.7
				c9.1,3.7,18.1,7.5,26.9,11.4c4.4,1.9,8.7,3.8,13,5.7c0.3,0.1,0.5,0.3,0.8,0.4c3.6,1.6,7.2,3.3,10.7,5c1.1,0.5,2.2,1,3.2,1.5
				c2.5,1.2,5,2.4,7.5,3.6c9.3,4.5,18.6,9.1,27.6,13.8c2.7,1.4,5.3,2.8,8,4.2c4.7,2.4,9.3,5,13.9,7.6c2.9,1.6,5.8,3.2,8.7,4.9
				c18.6,10.5,36.5,21.5,53.8,33c2.8,1.9,5.6,3.7,8.3,5.6c6.5,4.5,13,8.9,19.3,13.5c2.5,1.8,4.9,3.6,7.4,5.4
				c1.1,0.8,2.2,1.6,3.2,2.4c2.7,2,5.4,4.1,8.1,6.1c3.1,2.4,6.1,4.8,9.1,7.1c3,2.4,6.1,4.8,9,7.3c6,4.8,11.8,9.7,17.5,14.7
				c2.5,2.2,5,4.4,7.5,6.6c0.7,0.6,1.4,1.2,2.1,1.9c2.2,2,4.4,4,6.6,6c3.8,3.5,7.6,7,11.3,10.7c1.9,1.8,3.8,3.6,5.7,5.5
				c5.3,5.2,10.5,10.5,15.5,15.8c0.1,0,0.1,0.1,0.2,0.2c2.5,2.6,5,5.3,7.4,8c2.3,2.5,4.5,5,6.8,7.5c7.6,8.5,14.8,17.1,21.8,25.9
				c2.3,2.8,4.5,5.7,6.7,8.6c1.9,2.4,3.7,4.8,5.5,7.3c6.9,9.2,13.4,18.5,19.7,28c2,3,4,6,5.9,9c1.7,2.8,3.5,5.5,5.2,8.3
				c5.9,9.6,11.5,19.3,16.8,29.2c1.4,2.6,2.8,5.3,4.1,7.9c0.4,0.6,0.6,1.2,0.9,1.8c1.1,2.1,2.1,4.2,3.1,6.3c1,1.8,1.9,3.6,2.7,5.5
				c0.8,1.6,1.6,3.3,2.4,5c1.1,2.4,2.2,4.8,3.2,7.2c2.5,5.5,5,11.1,7.3,16.7c1.5,3.5,2.8,7,4.2,10.5c1.5,3.6,2.8,7.3,4.2,11
				c0.3,0.8,0.6,1.6,0.9,2.4c1.2,3.2,2.3,6.3,3.3,9.5c3.4,9.7,6.4,19.6,9.2,29.6c0.8,2.9,1.6,5.8,2.4,8.7c0.2,0.6,0.4,1.2,0.4,1.8h0
				C2208,1345.7,2117.4,1653.2,1810.9,2002.7z"/>
		</g>
	</g>
	<g class="st2">
		<g>
			<path class="st1" d="M1423.4,571.7c0.9,0.2,1.7,0.3,2.6,0.5c-0.2,0.2-0.4,0.4-0.6,0.6C1424.8,572.5,1424.1,572.1,1423.4,571.7z"
				/>
		</g>
	</g>
	<g class="st2">
		<g>
			<path class="st1" d="M1696,648.7c9.1,3.7,18.1,7.5,26.9,11.4C1714.1,656.2,1705.1,652.4,1696,648.7z"/>
		</g>
	</g>
	<g class="st3">
		<g>
			<path class="st4" d="M1836,718.1c-112.4-58-245.7-99.5-394.7-122.7c-63.1-9.8-124.3-29.4-181.5-58
				C594.7,204.7-20.6,457,82.3,1463.4c24.5,285.9,152.2,676.8,373.1,823.2c-253.8-114.4-400.1-544.7-426.6-852.8
				C-74,427.3,541.3,175,1206.4,507.8c57.2,28.6,118.4,48.1,181.5,58C1561.2,592.8,1713.3,644.6,1836,718.1z"/>
		</g>
	</g>
	<g>
		<g>
			<path class="st1" d="M1043.5,2475.1c-94.7,0-175.8-30-241.3-89.3c-47.1-42.7-110.3-62.9-173.4-55.4
				c-97.1,11.5-188.9-17.3-272.9-85.7C152.7,2079.1,34.8,1709,11.4,1435.2C-13.2,1195,2.1,987.9,56.7,819.9
				C108,662.1,192.9,541.5,309,461.3c225.3-155.6,555.2-144.3,905.2,30.8c55.6,27.8,114.9,46.8,176.3,56.3
				c386.7,60.2,662.1,242.2,755.5,499.5c48.1,132.6,47.4,280.1-2.2,438.5c-52.8,168.5-160.4,346.1-319.7,527.8
				c-177.8,209.5-488.3,442.7-749.9,459.8C1063.9,2474.7,1053.6,2475.1,1043.5,2475.1z M654.8,2293.8c62.9,0,123.9,23.3,171.1,66
				c65.1,59,148,85.7,246.1,79.3c251.4-16.5,552.3-243.6,725.5-447.6c0.1-0.1,0.1-0.1,0.2-0.2c302.4-344.8,411.4-666.8,315.4-931.3
				c-88.9-244.9-354.2-418.7-727.9-476.8c-65-10.1-127.8-30.2-186.6-59.6C860.3,354.3,543.4,342.1,329,490.2
				C97.4,650.1-0.3,975.7,46.3,1432c22.9,266.9,136.5,626.4,331.8,785.5c76.3,62.2,159.3,88.4,246.6,78.1
				C634.7,2294.4,644.8,2293.8,654.8,2293.8z"/>
		</g>
	</g>
	<g>
		<g>
			<path class="st5" d="M1240,882.5c134.7-289.2,148.4-570.1,81.1-830c-6.4-24.9-31.9-39.9-56.8-33.5l-116.4,29.8
				c-25.9,6.6-37.4,36.8-22.6,59.1c151.2,226.8,171.4,473.8,27.6,745.9"/>
		</g>
		<g>
			<path class="st1" d="M1242.1,883.5l-4.2-2c126-270.5,153.3-549.3,81-828.4c-6.1-23.6-30.3-37.9-54-31.8L1148.5,51
				c-11.6,3-20.7,11.1-25,22.2c-4.3,11.2-2.9,23.3,3.7,33.3c77,115.5,119,235.6,124.8,357.1c6.1,126.1-26.6,257.8-97.1,391.2
				l-4.1-2.2c137.4-260,128.2-510.2-27.4-743.6c-7.5-11.2-9-24.9-4.2-37.5c4.8-12.6,15.1-21.7,28.2-25.1l116.4-29.8
				c26.1-6.7,52.9,9.1,59.7,35.2C1395.9,332.2,1368.6,612,1242.1,883.5z"/>
		</g>
	</g>
	<g class="st3">
		<g>
			<path class="st4" d="M1181.4,852.3l62.1,22.4c-1.2,2.6-2.4,5.2-3.6,7.8l-87.1-28.7c143.9-272.2,123.7-519.2-27.6-746
				c-14.8-22.2-3.3-52.4,22.6-59.1L1264.3,19c12.7-3.2,25.5-1,35.9,5.4l-101.7,23.1c-26.1,5.9-38.4,35.8-24.2,58.4
				C1319.2,336.7,1332.6,584.2,1181.4,852.3z"/>
		</g>
	</g>
	<g>
		<g>
			<path class="st1" d="M1240,900.1c-2.5,0-5-0.5-7.4-1.6c-8.8-4.1-12.6-14.5-8.5-23.3c124.5-267.2,151.4-542.5,80-818.2
				c-4-15.5-19.9-24.9-35.5-20.9l-116.4,29.8c-6.7,1.7-12,6.4-14.5,12.9c-2.5,6.5-1.7,13.6,2.2,19.4
				c78.5,117.8,121.4,240.5,127.4,364.9c6.2,128.9-27.1,263.2-98.9,399c-4.5,8.6-15.2,11.8-23.7,7.3c-8.6-4.5-11.8-15.2-7.3-23.7
				c136.5-258.3,127.8-496.4-26.6-728c-10.1-15.2-12.3-34.4-5.7-51.4c6.5-17,20.9-29.9,38.6-34.4L1259.9,2
				c34.3-8.8,69.3,11.9,78.2,46.1c73.5,283.8,45.8,567-82.2,841.8C1252.9,896.3,1246.6,900.1,1240,900.1z"/>
		</g>
	</g>
	<g>
		<g>
			<path class="st6" d="M2006.1,482.4c-107.1,233.5-383.2,336-616.7,228.9c-25-11.5-48.5-24.8-70.4-39.9c6-19.7,13.4-39.1,22.2-58.3
				c107.1-233.5,383.2-335.9,616.6-228.9c25,11.5,48.5,24.8,70.4,40C2022.3,443.8,2014.9,463.2,2006.1,482.4z"/>
		</g>
		<g>
			<path class="st1" d="M1582.6,756c-65.1,0-131.2-13.7-194.1-42.5c-24.8-11.4-48.6-24.9-70.7-40.1l-1.4-1l0.5-1.6
				c6-19.8,13.5-39.5,22.3-58.6c107.4-234.3,385.4-337.5,619.7-230c24.9,11.4,48.7,24.9,70.7,40.2l1.4,1l-0.5,1.6
				c-6.1,19.8-13.6,39.5-22.3,58.5C1929.6,654.8,1759.8,756,1582.6,756z M1321.8,670.5c21.5,14.7,44.6,27.7,68.6,38.8
				c232,106.4,507.2,4.2,613.6-227.8c8.4-18.3,15.6-37.2,21.6-56.3c-21.4-14.7-44.5-27.8-68.6-38.8
				c-232-106.4-507.2-4.2-613.6,227.7C1334.9,632.5,1327.7,651.4,1321.8,670.5z"/>
		</g>
	</g>
	<g class="st2">
		<g>
			<path class="st1" d="M2028.3,424.2c-6,19.6-13.4,39-22.2,58.2c-107.1,233.5-383.2,336-616.7,229c-25-11.5-48.5-24.8-70.4-40
				c4.1-13.3,8.7-26.5,14.1-39.6c9.3,5.1,19,9.9,28.8,14.4c233.5,107.1,509.6,4.5,616.7-229c2.8-6.2,5.6-12.5,8.1-18.7
				C2001.1,406.5,2015,415,2028.3,424.2z"/>
		</g>
	</g>
	<g class="st3">
		<g>
			<path class="st4" d="M2028.3,424.2c-1.5,4.9-3.1,9.8-4.8,14.7c-13.9-8.3-28.4-15.8-43.4-22.7c-233.5-107.1-509.6-4.6-616.7,228.9
				c-6.6,14.4-12.4,28.9-17.4,43.6c-9.3-5.5-18.2-11.2-27-17.3c6-19.6,13.4-39.1,22.2-58.3c107.1-233.5,383.2-335.9,616.7-228.9
				C1982.9,395.7,2006.4,409.1,2028.3,424.2z"/>
		</g>
	</g>
	<g>
		<g>
			<path class="st1" d="M1582.6,771.2c-67.2,0-135.5-14.1-200.5-43.9c-25.6-11.7-50.2-25.7-73-41.4c-6.3-4.3-9-12.2-6.8-19.5
				c6.2-20.4,13.9-40.8,23-60.5c110.9-241.9,398-348.5,639.9-237.5c25.7,11.8,50.3,25.8,73.1,41.5c6.3,4.4,9,12.3,6.8,19.6
				c-6.3,20.5-14,40.8-23,60.4l0,0C1940.9,666.7,1765.5,771.2,1582.6,771.2z M1339.8,664.2c18,11.7,37.1,22.2,56.9,31.2
				c224.3,102.9,490.5,4,593.4-220.3l0,0c6.5-14.3,12.4-28.9,17.4-43.7c-18-11.7-37.1-22.2-56.9-31.3
				c-224.3-102.9-490.5-4.1-593.4,220.2C1350.6,634.7,1344.8,649.4,1339.8,664.2z M2006.1,482.4L2006.1,482.4L2006.1,482.4z"/>
		</g>
	</g>
	<g>
		<g>
			<path class="st1" d="M1410.8,921.1c-202.9,0-389.9-84.4-557.7-252.2c-6.9-6.9-6.9-18,0-24.8c6.9-6.8,18-6.9,24.8,0
				c205.3,205.3,440,280.4,697.8,223.3c9.5-2.1,18.8,3.9,20.9,13.3c2.1,9.5-3.9,18.8-13.3,20.9
				C1524.6,914.6,1467.1,921.1,1410.8,921.1z"/>
		</g>
	</g>
	<g>
		<g>
			<path class="st1" d="M1312.9,655l138.5-51.8c46.2-17.1,92.2-35,138.1-52.8c45.9-17.9,92.7-33.4,139.7-48.7
				c47-15,94.2-29.4,142.3-41.7c2.4-0.6,4.8,0.8,5.4,3.2c0.5,2-0.5,4.1-2.3,5c-44.3,22.3-89.4,42.5-134.7,62
				c-45.4,19.3-90.9,38.3-137.3,55c-46.4,16.7-92.8,33.4-138.9,50.8l-138.5,51.8c-9.1,3.4-19.2-1.2-22.6-10.3
				C1299.2,668.5,1303.8,658.4,1312.9,655z"/>
		</g>
	</g>
	<g>
		<g>
			<path class="st1" d="M1686.8,520.3l129.9,55.3c2.2,1,3.3,3.5,2.3,5.8c-0.8,2-3,3-5,2.6l-137.9-30.2c-9.5-2.1-15.5-11.5-13.4-21
				c2.1-9.5,11.5-15.5,21-13.4C1684.8,519.5,1685.9,519.9,1686.8,520.3z"/>
		</g>
	</g>
	<g>
		<g>
			<path class="st1" d="M1606.2,479l-84.6,132.4c-5.2,8.2-16.1,10.6-24.3,5.4c-8.2-5.2-10.6-16.1-5.4-24.3c0.5-0.8,1.2-1.6,1.8-2.3
				l105.5-116.5c1.6-1.8,4.4-1.9,6.2-0.3C1607.1,474.8,1607.4,477.2,1606.2,479z"/>
		</g>
	</g>
	<g class="st7">
		<g>
			
				<ellipse transform="matrix(0.7071 -0.7071 0.7071 0.7071 -1125.5925 851.9432)" class="st4" cx="465.6" cy="1784.7" rx="94.8" ry="94.8"/>
		</g>
	</g>
	<g class="st7">
		<g>
			<path class="st4" d="M287.1,1008.5c-93.7,173.4-104.2,351.7-31,520.6c22.5,51.9,83.5,74.9,135.1,51.7h0
				c49.5-22.3,72.8-79.4,53.2-130c-49.7-128.2-54.5-260.3-14.4-380.6c14.6-43.8-11.7-90.6-56.7-100.8l0,0
				C339,961.6,303.8,977.6,287.1,1008.5z"/>
		</g>
	</g>
	<g class="st2">
		<g>
			<path class="st1" d="M1827.6,713.2c14,8.1,27.7,16.6,41,25.5C1855.3,729.9,1841.7,721.4,1827.6,713.2z"/>
		</g>
	</g>
	<g class="st2">
		<g>
			<path class="st1" d="M1892.4,1278.6c0.3-1.3,0.6-2.6,0.9-3.9C1893,1276,1892.7,1277.3,1892.4,1278.6
				C1892.4,1278.6,1892.4,1278.6,1892.4,1278.6z"/>
		</g>
	</g>
	<g class="st2">
		<g>
			<path class="st1" d="M1985.2,832.5c5.3,5.2,10.5,10.5,15.5,15.8C1995.7,843,1990.5,837.7,1985.2,832.5z"/>
		</g>
	</g>
	<g class="st2">
		<g>
			<path class="st1" d="M2145.2,1104.2L2145.2,1104.2c-0.1-0.6-0.3-1.2-0.5-1.8C2144.9,1103,2145.1,1103.6,2145.2,1104.2z"/>
		</g>
	</g>
	<g class="st2">
		<g>
			<path class="st1" d="M1339.4,671.4c169.6-189.6,365.7-281.2,599.8-231.3L1339.4,671.4z"/>
		</g>
	</g>
	<g class="st8">
		<g>
			<path class="st4" d="M1509.9,1087.1c-21.9,71.4-197.5,80.7-392.2,20.9S783,941.8,805,870.4s157.8,48.5,352.5,108.3
				S1531.8,1015.7,1509.9,1087.1z"/>
		</g>
	</g>
</g>
</svg>
